<?xml version="1.0" encoding="UTF-8"?>
<svg version="1.1" xmlns="http://www.w3.org/2000/svg" width="640" height="640">
<path d="M0 0 C3.25014843 2.94599142 6.43419286 5.95750392 9.59765625 8.99609375 C10.49484375 9.85203125 11.39203125 10.70796875 12.31640625 11.58984375 C26.80364053 25.71936854 38.66798743 42.41729666 48.59765625 59.99609375 C48.96600586 60.63708008 49.33435547 61.27806641 49.71386719 61.93847656 C79.91817214 114.82875557 85.73192732 179.24446859 70.08666992 237.64941406 C65.60807774 253.49186566 59.38643812 268.51169239 51.59765625 282.99609375 C51.25653809 283.64352539 50.91541992 284.29095703 50.56396484 284.95800781 C30.29562378 323.3045385 -1.47431527 355.95937319 -39.40234375 376.99609375 C-40.35294678 377.53991699 -40.35294678 377.53991699 -41.32275391 378.09472656 C-94.38754867 408.4137164 -158.75606587 413.98837477 -217.33984375 398.46484375 C-256.23065041 387.56373226 -289.32009627 366.61562464 -318.40234375 338.99609375 C-319.64371094 337.81853516 -319.64371094 337.81853516 -320.91015625 336.6171875 C-335.09794627 322.80015854 -346.71050654 306.20896266 -356.40234375 288.99609375 C-357.00344971 287.94542725 -357.00344971 287.94542725 -357.61669922 286.87353516 C-375.21607019 255.88737206 -385.45263892 219.67196211 -386.40234375 183.99609375 C-386.42280762 183.32191406 -386.44327148 182.64773438 -386.46435547 181.953125 C-387.7604205 133.53813383 -374.8109735 85.14801427 -347.40234375 44.99609375 C-346.81187256 44.1148584 -346.81187256 44.1148584 -346.20947266 43.21582031 C-332.21514168 22.41606622 -314.56420562 3.8682706 -294.40234375 -11.00390625 C-293.45875 -11.71933594 -292.51515625 -12.43476562 -291.54296875 -13.171875 C-215.70259365 -69.83296449 -107.5884498 -72.78782964 0 0 Z M-290.97021484 31.63134766 C-292.34933428 32.94557842 -293.74469588 34.24270036 -295.140625 35.5390625 C-330.86204906 69.70962879 -350.89800157 120.02716194 -352.40234375 168.99609375 C-353.1838977 212.93917921 -339.70447826 253.63098879 -315.40234375 289.99609375 C-314.74234375 289.66609375 -314.08234375 289.33609375 -313.40234375 288.99609375 C-312.56961986 286.14491958 -311.8391351 283.32017667 -311.15234375 280.43359375 C-304.76825789 255.16997316 -293.71969861 230.16520406 -270.421875 216.2109375 C-263.96774773 212.81271008 -257.51673721 210.55636989 -250.40234375 208.99609375 C-248.88640625 208.65578125 -248.88640625 208.65578125 -247.33984375 208.30859375 C-246.37046875 208.20546875 -245.40109375 208.10234375 -244.40234375 207.99609375 C-243.31566406 207.81240234 -243.31566406 207.81240234 -242.20703125 207.625 C-238.02422349 207.19885187 -235.38784942 207.35440359 -231.8046875 209.6875 C-229.97433959 211.23750007 -228.16821069 212.81639859 -226.3828125 214.41796875 C-203.85000904 233.90899141 -174.51123418 241.56803009 -145.26269531 240.20751953 C-121.04314812 238.41730718 -93.04036907 228.01506486 -76.33203125 209.73046875 C-73.26574835 206.97453837 -70.75887242 207.45288295 -66.7890625 207.6171875 C-48.56052055 209.65659761 -32.0900033 216.67086774 -19.9296875 230.88671875 C-17.64550408 233.86111452 -15.49947716 236.88754757 -13.40234375 239.99609375 C-12.87125 240.75019531 -12.34015625 241.50429688 -11.79296875 242.28125 C-2.46300061 256.50192725 1.96690046 273.58787048 5.59765625 289.99609375 C9.44057338 286.42238273 12.26437409 282.7286204 14.91015625 278.18359375 C15.29550537 277.52762207 15.68085449 276.87165039 16.07788086 276.19580078 C34.20244302 244.93733648 44.07923989 211.02260243 43.91015625 174.80859375 C43.90833344 173.99560822 43.90651062 173.18262268 43.90463257 172.34500122 C43.85808402 159.99659584 43.2971332 148.08528679 40.59765625 135.99609375 C40.43136719 135.20106445 40.26507812 134.40603516 40.09375 133.58691406 C30.5068403 88.33314956 4.33729664 46.20424718 -32.40234375 17.99609375 C-33.41425781 17.2175 -34.42617188 16.43890625 -35.46875 15.63671875 C-112.70542251 -42.2965964 -221.50969383 -34.72142383 -290.97021484 31.63134766 Z " fill="#CBCBCB" transform="translate(481.40234375,136.00390625)"/>
<path d="M0 0 C2.98305625 2.64272604 5.79395415 5.43817063 8.609375 8.2578125 C9.69798828 9.24007812 9.69798828 9.24007812 10.80859375 10.2421875 C26.40081271 24.57845169 36.71314107 48.84108381 37.73388672 69.81640625 C38.58518589 100.65352889 30.76584284 125.68832948 10.19921875 148.98828125 C-8.74383088 168.85538208 -34.79080285 178.63528035 -61.890625 179.5078125 C-91.25627587 178.56232753 -116.48352982 167.26871315 -136.83203125 146.15234375 C-157.27589612 123.02424624 -163.03326503 95.43852566 -161.390625 65.2578125 C-160.73002914 59.36400847 -159.25368094 53.87609058 -157.390625 48.2578125 C-157.08511719 47.31687744 -157.08511719 47.31687744 -156.7734375 46.35693359 C-148.31645347 20.96640516 -130.44757638 1.57493449 -106.90869141 -10.68457031 C-73.6115136 -27.2100022 -29.06092664 -24.44617501 0 0 Z " fill="#CBCBCB" transform="translate(389.390625,181.7421875)"/>
</svg>
