<?xml version="1.0" encoding="utf-8"?>
<!-- Generator: Adobe Illustrator 27.1.1, SVG Export Plug-In . SVG Version: 6.00 Build 0)  -->
<svg version="1.1" id="Capa_1" xmlns="http://www.w3.org/2000/svg" xmlns:xlink="http://www.w3.org/1999/xlink" x="0px" y="0px"
	 viewBox="0 0 40.7 40.8" style="enable-background:new 0 0 40.7 40.8;" xml:space="preserve">
<style type="text/css">
	.st0{fill:#4D4D4D;}
</style>
<path class="st0" d="M19.3,3c0.7,0,1.4,0,2.2,0c0.1,0,0.2,0,0.3,0.1c0.9,0.1,1.8,0.2,2.7,0.4C31,5,36.3,10.6,37.4,17.4
	c0.1,0.6,0.2,1.3,0.3,1.9c0,0.7,0,1.4,0,2.2c0,0.1,0,0.2-0.1,0.3c-0.1,0.8-0.2,1.5-0.3,2.3C35,34.7,23.5,40.8,13.2,36.2
	C5.8,32.9,1.8,25,3.3,17c1.3-6.9,7.1-12.6,14-13.7C18,3.2,18.6,3.1,19.3,3z M30.8,31.5c3.6-3.1,6.1-9.1,4.3-15.5
	c-1.9-6.4-7.8-10.9-14.5-11C13.8,5,7.7,9.4,5.7,15.8c-2,6.3,0.4,12.4,4.2,15.7c1-3.3,3.1-5.6,6.3-7c-4-2.6-4.4-8.1-1.4-11.4
	c2.8-3.1,7.5-3.3,10.6-0.6c1.5,1.3,2.4,3,2.5,4.9c0.2,3-1,5.3-3.4,7C27.7,25.9,29.7,28.3,30.8,31.5z M20.4,35.7c3,0,5.8-0.8,8.3-2.5
	c0.3-0.2,0.3-0.3,0.2-0.6c-0.9-3.8-4-6.5-7.9-6.8c-4.4-0.4-8.3,2.6-9.3,6.9c-0.1,0.2,0,0.4,0.2,0.6C14.5,34.8,17.3,35.7,20.4,35.7z
	 M20.4,12.7c-3,0-5.5,2.5-5.5,5.5c0,3,2.5,5.5,5.5,5.5c3,0,5.5-2.5,5.5-5.5C25.9,15.1,23.4,12.7,20.4,12.7z"/>
</svg>
