<?xml version="1.0" encoding="utf-8"?>
<!-- Generator: Adobe Illustrator 27.1.1, SVG Export Plug-In . SVG Version: 6.00 Build 0)  -->
<svg version="1.1" id="Capa_1" xmlns="http://www.w3.org/2000/svg" xmlns:xlink="http://www.w3.org/1999/xlink" x="0px" y="0px"
	 viewBox="0 0 39.4 42.5" style="enable-background:new 0 0 39.4 42.5;" xml:space="preserve">
<style type="text/css">
	.st0{fill:#4D4D4D;}
	.st1{fill:#FFFFFF;}
</style>
<g>
	<path class="st0" d="M27.7,5.8c0.5,0.2,0.7,0.7,0.7,1.2c0,0.5,0,1,0,1.6c0.1,0,0.2,0,0.3,0c1.4,0,2.8,0,4.3,0c0.7,0,1,0.3,1,1
		c0,1.1,0.1,2.2-0.2,3.2c-0.9,2.8-2.8,4.5-5.7,5c-0.2,0-0.3,0.1-0.3,0.3c-1,2.3-2.6,3.9-4.9,4.8c-0.1,0-0.2,0.2-0.2,0.2
		c0,1,0,2,0,3.1c1.9,0.5,3.1,1.7,3.6,3.6c0.5,0,0.9,0,1.4,0c0.7,0,1,0.4,1,1c0,1.2,0,2.4,0,3.7c0,0.1,0,0.2,0,0.4c0.4,0,0.8,0,1.1,0
		c0.6,0,1,0.4,1,0.9c0,0.5-0.4,0.9-1,0.9c-6.6,0-13.3,0-19.9,0c-0.6,0-1-0.4-1-0.9c0-0.5,0.4-0.9,1-0.9c0.3,0,0.7,0,1,0
		c0,0,0,0,0.1,0c0-0.1,0-0.2,0-0.3c0-1.2,0-2.4,0-3.6c0-0.7,0.3-1.1,1.1-1.1c0.4,0,0.9,0,1.3,0c0.9-2.3,1.4-2.8,3.6-3.6
		c0-0.8-0.1-1.5,0-2.3c0.1-0.7-0.2-1-0.8-1.3c-2-0.9-3.4-2.4-4.3-4.5c-0.1-0.2-0.2-0.3-0.4-0.3c-3.1-0.5-5.4-2.8-5.8-5.9
		c-0.1-0.8-0.1-1.6-0.1-2.5c0-0.5,0.4-0.8,1-0.8c1.4,0,2.9,0,4.3,0c0.1,0,0.2,0,0.4,0c0-0.5,0-1,0-1.6c0-0.6,0.1-1,0.7-1.2
		C17.1,5.8,22.4,5.8,27.7,5.8z M12.9,7.7c0,0.1,0,0.2,0,0.3c0,2.3,0,4.6,0,6.9c0,0.4,0,0.8,0.1,1.2c0.6,3.7,4.5,6.3,8.2,5.4
		c3.2-0.7,5.4-3.5,5.4-6.8c0-2.3,0-4.5,0-6.8c0-0.1,0-0.2,0-0.3C22,7.7,17.4,7.7,12.9,7.7z M26.7,31.6c-4.7,0-9.4,0-14,0
		c0,1.1,0,2.1,0,3.2c4.7,0,9.4,0,14,0C26.7,33.7,26.7,32.7,26.7,31.6z M7.3,10.4c-0.4,2.3,1.8,5.4,3.8,5.4c0-1.8,0-3.6,0-5.4
		C9.8,10.4,8.5,10.4,7.3,10.4z M28.4,10.4c0,1.8,0,3.7,0,5.5c2.2-0.4,4.1-2.7,3.8-5.5C30.9,10.4,29.7,10.4,28.4,10.4z M24.3,29.8
		c0-0.1,0-0.1,0-0.1c0-0.1-0.1-0.1-0.1-0.2c-0.5-1-1.3-1.5-2.4-1.5c-1.3,0-2.6,0-4,0c-1.1,0-1.9,0.5-2.4,1.5c0,0.1-0.1,0.2-0.1,0.3
		C18.2,29.8,21.2,29.8,24.3,29.8z M20.8,23.4c-0.7,0-1.4,0-2.1,0c0,0.9,0,1.8,0,2.7c0.7,0,1.4,0,2.1,0
		C20.8,25.2,20.8,24.3,20.8,23.4z"/>
	<ellipse class="st1" cx="21.7" cy="16.4" rx="0.3" ry="0.2"/>
</g>
</svg>
