<?xml version="1.0" encoding="utf-8"?>
<!-- Generator: Adobe Illustrator 27.1.1, SVG Export Plug-In . SVG Version: 6.00 Build 0)  -->
<svg version="1.1" id="Capa_1" xmlns="http://www.w3.org/2000/svg" xmlns:xlink="http://www.w3.org/1999/xlink" x="0px" y="0px"
	 viewBox="0 0 546 546" style="enable-background:new 0 0 546 546;" xml:space="preserve" width="500px" height="500px">
<style type="text/css">
	.st0{fill:#232323;}
	.st1{fill:#DCDCDC;}
	.st2{fill:#3A3A3A;}
	.st3{fill:#CECECE;}
	.st4{opacity:0.44;fill:#080808;enable-background:new    ;}
	.st5{fill:#929292;}
	.st6{fill:#141414;}
	.st7{fill:#AEAEAE;}
</style>
<g>
	<g>
		<g>
			<path class="st0" d="M206.6,334.2c-3.2,11.6-13.3,19.9-25.1,21.2c-16.2,1.7-41.8,5.7-53.9,14.3c0,0-9.3,2-21.9,37.9
				c-12.5,35.9-18.9,56.3-20.4,65.7c-1.5,9.3-10.1,68.1-9.6,72.6s18.4,13.5,18.4,13.5s46.7,26.3,109.2,37.1s155.5,2.5,155.5,2.5
				s86.6-15.5,120.3-34.2c0,0,5.7,1.7,3.4-15.5c-2.2-17.5-9.1-70.1-21.9-118.6s-22.4-57.8-46-64.4c-10.3-3-20.2-4.9-28.3-6.4
				c-13.8-2.7-26.3-9.8-35.2-20.7c-1-1-1.5-2-2-2.7c-3.2-5.4-4.4-34.2-4.4-34.2l-132.3-6.1C212.3,295.9,211,319,206.6,334.2z"/>
			<path class="st1" d="M204.4,292.7c0,0,27.1,22.1,53.9,36.7c0,0,8.6,6.4,16.2,6.4c7.6,0,28-10.1,28-10.1l42.6-23.9l21.6-34.9
				l5.7-93.7l-27.5-99.4l-21.6-39.8l-46.7-8.4l-60.5,15.7l-36.9,42.6l-13.8,94l17,98.1L204.4,292.7z"/>
			<path class="st2" d="M201.7,345.1c0,0,12.5,20.9,66.7,26.3c54.4,5.4,72.6-28,72.6-28l4.7-7.4l10.8,18.2l5.4,17.5l-1.5,27.5
				l-15.7,46.7l-23.1,44.3L303,521.9l-6.9,61.7l-1.5,17h-27.3l-5.4-58.3l-28-62.5L215,447.1L199.5,394l-3.7-37.4l0.2-10.6
				L201.7,345.1z"/>
			<g>
				<path class="st3" d="M361.1,367.9c0,0,3.4,27.3-16,63.7c0,0-26.6,59.5-50.2,83.9c-1,1.2-1.7,2.7-1.7,4.2l-5.2,79.2l11.6,0.2
					l5.7-45c0,0,6.6-38.9,20.2-59.8c13.3-20.9,31.2-63.7,31.2-63.7l3.9-12.8c0,0,3.7-35.7,1.7-44.5L361.1,367.9L361.1,367.9z"/>
			</g>
			<g>
				<path class="st3" d="M199.2,349.5C199.2,349.5,199,349.5,199.2,349.5c-1,0-6.9,3.2-6.9,3.2s0.7,51.9,15.5,85.6s33,66.9,33,66.9
					s13.3,24.6,18.9,76.5l1.5,17.5l13-0.2c0,0-5.7-69.9-7.9-81.2c-1-4.7-48.5-70.1-56.3-101.3c-7.9-31.2-8.4-56.1-8.6-57.8
					C200.5,356.9,200.2,349.5,199.2,349.5L199.2,349.5z"/>
			</g>
			<path class="st4" d="M137.7,575.1c0,0,23.9,0,15.3-43.5c-0.2-1-15.5-34.9-15.7-63.5c-0.2-28.5-6.9-70.4-6.9-70.4
				s-8.1-32.5-17.7-7.6c-8.6,22.1-13.5,38.1-13.5,38.1s-9.8,17-15.7,55.3c-5.9,38.6-8.4,57.8-7.9,62
				C75.7,550,137.7,575.1,137.7,575.1z"/>
			<path class="st5" d="M93,436.8c0.5-1.5,1.7-2.7,3.2-3.4c2.5-1,6.1-0.5,7.1,11.3c1.5,18.4,1.7,47-3.2,59.3
				c-3.4,8.1-6.9,14.5-8.9,17.7c-1,1.7-3,3-5.2,3c-3.4,0-8.1-1.2-8.9-8.9C76.5,504.2,87.5,450.6,93,436.8z"/>
			<path class="st4" d="M404.9,588.8c0,0,65.9-16.2,75.8-26.8c0,0,9.8,1.2-19.9-130.1c-6.9-30.3-17-47.2-24.8-55.1
				c0,0-5.2,1.5-6.9,23.4c-1.5,21.9-3,76.3-6.6,87.6c-3.7,11.3-15.3,58.1-20.4,66.7c-5.2,8.6,2.7,34.7,2.7,34.7"/>
			<path class="st5" d="M454.1,445.7c0,0,2.2-21.9,10.3-11.3c7.9,10.8,17.2,86.1,14.8,90.5c-2.7,4.7-6.9,0-6.9,0
				S455.8,506.9,454.1,445.7z"/>
			<path class="st6" d="M218.2,345.3c0,0-2-11.8-3-13.8c-7.6-18.7-14.3-40.6-16.7-67.6c-3.4-40.1-3.4-116.8,3.4-133.6
				c7.1-16.7,18.9-79.5,61.7-94s68.4,46,68.4,46s25.8,65.2,21.4,137c-4.4,71.8-10.8,94-10.8,94s-34.7,100.9-34.9,126.2
				c0,0,0,0,0,0.2l2.5,25.6l0,0c0-1-2-71.8,34.4-109.7c0.2-0.7,14.5-24.6,17-32c1-3,2.2-8.6,2.5-13.5c0-0.5,1.2-4.4,1.2-4.4
				s1,1,1.7,4.9c1,5.4,2.2,13,2.2,13s1.5,22.6,1.7,37.1c0.2,14.3-0.2,53.1-0.2,53.1s7.4,1.2-2.2,30.7l0,0c0,0,14.3-5.9,18.7-74.8
				l2.2-21.9c0.7-7.9,2-15.7,3.9-23.4c0.7-3,1.5-7.1,2-13c1.2-14.8,3-65.4,4.4-75.3c0-0.2,0-0.7,0.2-1c1.5-6.4,0.2,29.8,30.7,65.9
				l0,0c0,0-16-35.7-15.7-52.6c0.2-17.2,4.9-47.7,4.9-47.7s0.7-13.8,0.2-18.7c-0.5-4.9,15.7,17.2,16.2,50.4c0.5,33.5,0,83.6,0,83.6
				s0.5,20.2,19.7,41.1c0,0-17.2-15.3-13.3-55.8c3.9-40.6,6.1-75.8,5.7-79.5c-0.5-3.7-7.4-64.2-24.8-92.2l0,0l-3.7-28.3l0,0
				c0,0-14.3-58.5-48.7-79.5C338.7,2.2,321.2,3.4,318,3.6c-0.2,0-4.7-1-14.8,1.7C300.1,6.1,291,10,291,10s-3.9,3.2-18-4.4
				c-14-7.4-45.5,3.2-45.5,3.2s-28.8,13.3-51.2,46c-21.4,31.7-34.2,71.1-37.4,96.9c-1.5,11.6,0,46.7,0,46.7c0,0.2,0,0.5,0,0.7
				c-1.5,4.4-16.7,53.1-12.1,109.5c0,0,1.2,30.7,14.5,52.4c0,0-10.6-50.2-6.1-75.8c3.4-20.4,8.1-38.1,11.8-46.5
				c0.7-1.7,2.2-7.1,3.7,0.2c2,11.6,8.1,39.8,12.3,62.5c2.5,13.5,3.9,25.6,4.4,28.8c1.7,12.8,5.4,19.2,6.1,20.2l3.7,7.9
				c0.7,1.5,1.7,8.9,1.7,8.9s-1.5-27.5-0.5-29.8c4.4-10.1,7.6-12.5,6.4-17.5c-1.2-4.7-2-9.8-2-9.8s1.5-3.2,3.7,3.2
				c2,6.1,3.9,23.9,3.4,41.8l0.7,25.8c0.2,2,5.7-22.6,5.7-22.6l3-14.3l-0.5-10.8c-0.2-2-0.7-5.9-0.7-5.9s3,3,10.1,6.4
				C211.5,334.7,218.2,345.3,218.2,345.3z"/>
		</g>
	</g>
	<polygon class="st3" points="300.3,523.4 305.7,515.3 307.9,520.9 303.8,531 	"/>
	<path class="st3" d="M252.1,513.3l6.1,2.2c0,0,1.7,12.5,1.5,12.8c-0.2,0.2-4.4-8.4-4.4-8.4L252.1,513.3"/>

		<ellipse transform="matrix(0.1844 -0.9829 0.9829 0.1844 -402.5082 474.9063)" class="st7" cx="84.9" cy="480" rx="25.1" ry="5.2"/>

		<ellipse transform="matrix(0.9829 -0.1844 0.1844 0.9829 -80.0525 95.4689)" class="st7" cx="473.3" cy="478.2" rx="5.2" ry="25.1"/>
</g>
</svg>
