<?xml version="1.0" encoding="utf-8"?>
<!-- Generator: Adobe Illustrator 27.1.1, SVG Export Plug-In . SVG Version: 6.00 Build 0)  -->
<svg version="1.1" id="Capa_1" xmlns="http://www.w3.org/2000/svg" xmlns:xlink="http://www.w3.org/1999/xlink" x="0px" y="0px"
	 viewBox="0 0 500 500" style="enable-background:new 0 0 500 500;" xml:space="preserve" width="500px" height="500px">
<style type="text/css">
	.st0{clip-path:url(#SVGID_00000026161976310726440270000009807911159354928056_);}
	.st1{fill:#232323;}
	.st2{fill:#DCDCDC;}
	.st3{fill:#3A3A3A;}
	.st4{opacity:0.44;fill:#080808;enable-background:new    ;}
	.st5{fill:#B8B8B8;}
	.st6{fill:#141414;}
</style>
<g>
	<g>
		<defs>
			<circle id="SVGID_1_" cx="247.8" cy="255.5" r="223.2"/>
		</defs>
		<clipPath id="SVGID_00000045604630420633917260000013243947923527298950_">
			<use xlink:href="#SVGID_1_"  style="overflow:visible;"/>
		</clipPath>
		<g style="clip-path:url(#SVGID_00000045604630420633917260000013243947923527298950_);">
			<g>
				<path class="st1" d="M198.8,293.2c-2.2,7.8-9,13.5-17,14.3c-11,1.2-28.3,3.8-36.5,9.7c0,0-6.3,1.3-14.8,25.7
					c-8.5,24.3-12.8,38.2-13.8,44.5c-1,6.3-6.8,46.2-6.5,49.2c0.3,3,12.5,9.2,12.5,9.2s31.7,17.8,74,25.2
					c42.3,7.3,105.3,1.7,105.3,1.7s58.7-10.5,81.5-23.2c0,0,3.8,1.2,2.3-10.5c-1.5-11.8-6.2-47.5-14.8-80.3s-15.2-39.2-31.2-43.7
					c-7-2-13.7-3.3-19.2-4.3c-9.3-1.8-17.8-6.7-23.8-14c-0.7-0.7-1-1.3-1.3-1.8c-2.2-3.7-3-23.2-3-23.2l-89.7-4.2
					C202.7,267.2,201.8,282.8,198.8,293.2z"/>
				<path class="st2" d="M197.3,265c0,0,18.3,15,36.5,24.8c0,0,5.8,4.3,11,4.3s19-6.8,19-6.8l28.8-16.2l14.7-23.7l3.8-63.5
					l-18.7-67.3l-14.7-27L246.2,84l-41,10.7l-25,28.8l-9.3,63.7l11.5,66.5L197.3,265z"/>
				<path class="st3" d="M195.5,300.5c0,0,8.5,14.2,45.2,17.8c36.8,3.7,49.2-19,49.2-19l3.2-5l7.3,12.3l3.7,11.8l-1,18.7l-10.7,31.7
					l-15.7,30l-12.5,21.5l-4.7,41.8l-1,11.5H240l-3.7-39.5l-19-42.3l-12.8-22.2l-10.5-36l-2.5-25.3l0.2-7.2L195.5,300.5z"/>
				<g>
					<path class="st2" d="M303.5,316c0,0,2.3,18.5-10.8,43.2c0,0-18,40.3-34,56.8c-0.7,0.8-1.2,1.8-1.2,2.8l-3.5,53.7l7.8,0.2
						l3.8-30.5c0,0,4.5-26.3,13.7-40.5c9-14.2,21.2-43.2,21.2-43.2l2.7-8.7c0,0,2.5-24.2,1.2-30.2L303.5,316L303.5,316z"/>
				</g>
				<g>
					<path class="st2" d="M193.8,303.5C193.8,303.5,193.7,303.5,193.8,303.5c-0.7,0-4.7,2.2-4.7,2.2s0.5,35.2,10.5,58
						c10,22.8,22.3,45.3,22.3,45.3s9,16.7,12.8,51.8l1,11.8l8.8-0.2c0,0-3.8-47.3-5.3-55c-0.7-3.2-32.8-47.5-38.2-68.7
						c-5.3-21.2-5.7-38-5.8-39.2C194.7,308.5,194.5,303.5,193.8,303.5L193.8,303.5z"/>
				</g>
				<path class="st4" d="M152.2,456.3c0,0,16.2,0,10.3-29.5c-0.2-0.7-10.5-23.7-10.7-43c-0.2-19.3-4.7-47.7-4.7-47.7s-5.5-22-12-5.2
					c-5.8,15-9.2,25.8-9.2,25.8s-6.7,11.5-10.7,37.5c-4,26.2-5.7,39.2-5.3,42C110.2,439.3,152.2,456.3,152.2,456.3z"/>
				<path class="st5" d="M121.8,362.7c0.3-1,1.2-1.8,2.2-2.3c1.7-0.7,4.2-0.3,4.8,7.7c1,12.5,1.2,31.8-2.2,40.2
					c-2.3,5.5-4.7,9.8-6,12c-0.7,1.2-2,2-3.5,2c-2.3,0-5.5-0.8-6-6C110.7,408.3,118.2,372,121.8,362.7z"/>
				<path class="st4" d="M333.2,465.7c0,0,44.7-11,51.3-18.2c0,0,6.7,0.8-13.5-88.2c-4.7-20.5-11.5-32-16.8-37.3c0,0-3.5,1-4.7,15.8
					c-1,14.8-2,51.7-4.5,59.3s-10.3,39.3-13.8,45.2c-3.5,5.8,1.8,23.5,1.8,23.5"/>
				<path class="st5" d="M366.5,368.7c0,0,1.5-14.8,7-7.7c5.3,7.3,11.7,58.3,10,61.3c-1.8,3.2-4.7,0-4.7,0S367.7,410.2,366.5,368.7z
					"/>
				<path class="st6" d="M206.7,300.7c0,0-1.3-8-2-9.3c-5.2-12.7-9.7-27.5-11.3-45.8c-2.3-27.2-2.3-79.2,2.3-90.5
					c4.8-11.3,12.8-53.8,41.8-63.7c29-9.8,46.3,31.2,46.3,31.2s17.5,44.2,14.5,92.8c-3,48.7-7.3,63.7-7.3,63.7s-23.5,68.3-23.7,85.5
					c0,0,0,0,0,0.2L269,382l0,0c0-0.7-1.3-48.7,23.3-74.3c0.2-0.5,9.8-16.7,11.5-21.7c0.7-2,1.5-5.8,1.7-9.2c0-0.3,0.8-3,0.8-3
					s0.7,0.7,1.2,3.3c0.7,3.7,1.5,8.8,1.5,8.8s1,15.3,1.2,25.2c0.2,9.7-0.2,36-0.2,36s5,0.8-1.5,20.8l0,0c0,0,9.7-4,12.7-50.7
					l1.5-14.8c0.5-5.3,1.3-10.7,2.7-15.8c0.5-2,1-4.8,1.3-8.8c0.8-10,2-44.3,3-51c0-0.2,0-0.5,0.2-0.7c1-4.3,0.2,20.2,20.8,44.7l0,0
					c0,0-10.8-24.2-10.7-35.7c0.2-11.7,3.3-32.3,3.3-32.3s0.5-9.3,0.2-12.7c-0.3-3.3,10.7,11.7,11,34.2c0.3,22.7,0,56.7,0,56.7
					s0.3,13.7,13.3,27.8c0,0-11.7-10.3-9-37.8c2.7-27.5,4.2-51.3,3.8-53.8c-0.3-2.5-5-43.5-16.8-62.5l0,0l-2.5-19.2l0,0
					c0,0-9.7-39.7-33-53.8c-22-13.5-33.8-12.7-36-12.5c-0.2,0-3.2-0.7-10,1.2c-2.2,0.5-8.3,3.2-8.3,3.2s-2.7,2.2-12.2-3
					c-9.5-5-30.8,2.2-30.8,2.2s-19.5,9-34.7,31.2c-14.5,21.5-23.2,48.2-25.3,65.7c-1,7.8,0,31.7,0,31.7c0,0.2,0,0.3,0,0.5
					c-1,3-11.3,36-8.2,74.2c0,0,0.8,20.8,9.8,35.5c0,0-7.2-34-4.2-51.3c2.3-13.8,5.5-25.8,8-31.5c0.5-1.2,1.5-4.8,2.5,0.2
					c1.3,7.8,5.5,27,8.3,42.3c1.7,9.2,2.7,17.3,3,19.5c1.2,8.7,3.7,13,4.2,13.7l2.5,5.3c0.5,1,1.2,6,1.2,6s-1-18.7-0.3-20.2
					c3-6.8,5.2-8.5,4.3-11.8c-0.8-3.2-1.3-6.7-1.3-6.7s1-2.2,2.5,2.2c1.3,4.2,2.7,16.2,2.3,28.3l0.5,17.5c0.2,1.3,3.8-15.3,3.8-15.3
					l2-9.7l-0.3-7.3c-0.2-1.3-0.5-4-0.5-4s2,2,6.8,4.3C202.2,293.5,206.7,300.7,206.7,300.7z"/>
			</g>
		</g>
	</g>
</g>
<polygon class="st2" points="262.3,421.3 266,415.8 267.5,419.7 264.7,426.5 "/>
<path class="st2" d="M229.7,414.5l4.2,1.5c0,0,1.2,8.5,1,8.7c-0.2,0.2-3-5.7-3-5.7L229.7,414.5"/>
<ellipse transform="matrix(0.1844 -0.9829 0.9829 0.1844 -290.2802 434.015)" class="st3" cx="116.4" cy="391.9" rx="17" ry="3.5"/>
<ellipse transform="matrix(0.9829 -0.1844 0.1844 0.9829 -65.5296 76.6809)" class="st3" cx="379.5" cy="390.7" rx="3.5" ry="17"/>
</svg>
