<?xml version="1.0" encoding="utf-8"?>
<!-- Generator: Adobe Illustrator 27.1.1, SVG Export Plug-In . SVG Version: 6.00 Build 0)  -->
<svg version="1.1" id="Capa_1" xmlns="http://www.w3.org/2000/svg" xmlns:xlink="http://www.w3.org/1999/xlink" x="0px" y="0px"
	 viewBox="0 0 37.8 37.8" style="enable-background:new 0 0 37.8 37.8;" xml:space="preserve">
<style type="text/css">
	.st0{fill:#4D4D4D;}
</style>
<g>
	<path class="st0" d="M35.9,14.6c-0.1,0.1-0.1,0.1-0.2,0.2c-7,7-14,14-21,21c-0.1,0.1-0.1,0.1-0.2,0.2c0,0,0,0-0.1,0
		c-0.2-0.2-0.5-0.5-0.7-0.7c-1.1-1.1-2.1-2.1-3.2-3.2c-0.1-0.1-0.2-0.1-0.3-0.2c0.3-0.4,0.6-0.7,0.9-1c1-1.2,0.9-3-0.2-4.1
		c-1.1-1.1-2.9-1.2-4.1-0.2C6.6,26.8,6.3,27,6,27.3c-1.4-1.4-2.8-2.8-4.2-4.2C8.9,16.1,16,9,23.1,1.9c1.4,1.4,2.7,2.7,4.2,4.2
		c-0.2,0.2-0.4,0.4-0.6,0.6c-1.1,1.1-1.2,2.5-0.5,3.8c0.8,1.6,3.1,2,4.5,0.9c0.4-0.3,0.7-0.6,1.1-1c0.1,0.1,0.1,0.2,0.2,0.3
		c1.2,1.2,2.5,2.5,3.7,3.7C35.7,14.4,35.8,14.4,35.9,14.6C35.9,14.5,35.9,14.6,35.9,14.6z M6,24.6c2.1-1.2,4.2-1.2,6.1,0.4
		c2.2,1.9,2.3,4.2,1,6.6c0.5,0.5,1,1,1.4,1.4c6.1-6.1,12.3-12.3,18.4-18.4c-0.4-0.5-0.9-0.9-1.4-1.4c-2.1,1.1-4.2,1.2-6-0.4
		c-2.2-1.9-2.3-4.2-1-6.6c-0.5-0.5-1-1-1.4-1.4C17,10.8,10.8,17,4.7,23.2C5.1,23.6,5.6,24.1,6,24.6z"/>
	<path class="st0" d="M21.7,14.6c0.4,0.4,0.9,0.9,1.3,1.3c-0.4,0.4-0.9,0.9-1.3,1.3c-0.4-0.4-0.9-0.9-1.3-1.3
		C20.8,15.6,21.3,15.1,21.7,14.6z"/>
	<path class="st0" d="M20.2,13.1c-0.5,0.5-0.9,0.9-1.3,1.3c-0.4-0.4-0.9-0.9-1.4-1.3c0.4-0.4,0.9-0.9,1.3-1.3
		C19.3,12.2,19.7,12.7,20.2,13.1z"/>
	<path class="st0" d="M23.2,18.8c0.4-0.4,0.9-0.9,1.3-1.3c0.4,0.4,0.9,0.9,1.3,1.3c-0.4,0.4-0.9,0.9-1.3,1.3
		C24.1,19.7,23.6,19.3,23.2,18.8z"/>
</g>
</svg>
